# xmcd CD database file
#
# Track frame offsets:
#	150
#	17175
#	29437
#	40991
#	71652
#	91529
#	105248
#	122097
#	137285
#	148210
#
# Disc length: 2182 seconds
#
# Revision: 0
# Processed by: cddbd v1.5.1PL2 Copyright (c) Steve Scherf et al.
# Submitted via: CDex 1.51
#
DISCID=7f08840a
DTITLE=Rock4 - Concrete Vision
DYEAR=2006
DGENRE=Blues
TTITLE0=Rock4 - 01. Dance The Night Away
TTITLE1=Rock4 - 02. I'm Gonna Get You
TTITLE2=Rock4 - 03. Route 66
TTITLE3=Rock4 - 04. Break Down That Wall
TTITLE4=Rock4 - 05. A Forest
TTITLE5=Rock4 - 06. Hard To Forget
TTITLE6=Rock4 - 07. That's When I Reach For My Revolver
TTITLE7=Rock4 - 08. Mean Mean Woman
TTITLE8=Rock4 - 09. Jumping And Bumping
TTITLE9=Rock4 - 10. Queen Of Seduction
EXTD=YEAR: 2006
EXTT0=
EXTT1=
EXTT2=
EXTT3=
EXTT4=
EXTT5=
EXTT6=
EXTT7=
EXTT8=
EXTT9=
PLAYORDER=
